<?xml version="1.0" encoding="UTF-8"?>
<svg width="30px" height="30px" viewBox="0 0 30 30" version="1.1" xmlns="http://www.w3.org/2000/svg" xmlns:xlink="http://www.w3.org/1999/xlink">
    <title>icon/controls/navigation/asset copy 2@svg</title>
    <g id="Page-1" stroke="none" stroke-width="1" fill="none" fill-rule="evenodd">
        <g id="assets" transform="translate(-407, -176)" stroke="#F4F4F4">
            <g id="icon/controls/navigation/asset-copy-2" transform="translate(411.5044, 180.4972)">
                <path d="M6.17961311,8.0980296 L6.17961311,20.5055129 L2.5,20.5055129 C1.94771525,20.5055129 1.44771525,20.2816553 1.08578644,19.9197265 C0.723857625,19.5577977 0.5,19.0577977 0.5,18.5055129 L0.5,8.0980296 L6.17961311,8.0980296 Z M20.4911804,8.07583523 L20.4911804,18.5055129 C20.4911804,19.0577977 20.2673227,19.5577977 19.9053939,19.9197265 C19.5434651,20.2816553 19.0434651,20.5055129 18.4911804,20.5055129 L8.13569356,20.5055129 L8.13569356,8.07583523 L20.4911804,8.07583523 Z M6.17961311,0.5 L6.17961311,6.19264447 L0.5,6.19264447 L0.5,2.5 C0.5,1.94771525 0.723857625,1.44771525 1.08578644,1.08578644 C1.44771525,0.723857625 1.94771525,0.5 2.5,0.5 L6.17961311,0.5 Z M18.4911804,0.5 C19.0434651,0.5 19.5434651,0.723857625 19.9053939,1.08578644 C20.2673227,1.44771525 20.4911804,1.94771525 20.4911804,2.5 L20.4911804,6.19264447 L8.13569356,6.19264447 L8.13569356,0.5 Z" id="fill"></path>
            </g>
        </g>
    </g>
</svg>