<?xml version="1.0" encoding="UTF-8"?>
<svg width="20px" height="20px" viewBox="0 0 20 20" version="1.1" xmlns="http://www.w3.org/2000/svg" xmlns:xlink="http://www.w3.org/1999/xlink">
    <title>icon/utilities/20x20/information/error@svg</title>
    <g id="Page-1" stroke="none" stroke-width="1" fill="none" fill-rule="evenodd">
        <g id="assets" transform="translate(-208, -288)" fill="#FFFFFF">
            <g id="icon/utilities/20x20/information/error" transform="translate(210.3637, 290.4367)">
                <path d="M5.52443274,1.3229204 C6.44855233,-0.440973872 8.82399269,-0.440972998 9.748113,1.32292021 L14.9607222,11.2723115 C15.860248,12.9892829 14.7087169,15.1266462 12.8488622,15.1266462 L2.42368363,15.1266462 C0.563824073,15.1266462 -0.587711106,12.9892768 0.311832434,11.2723092 Z M9.10389834,1.66043036 C8.45204506,0.416220515 6.82050019,0.416219914 6.1686472,1.6604309 L0.956046186,11.609821 C0.301399951,12.8593507 1.13110693,14.3993735 2.42368363,14.3993735 L12.8488622,14.3993735 C14.1414349,14.3993735 14.9711402,12.8593529 14.316507,11.6098206 Z M7.49081807,11.2727273 C7.89241569,11.2727273 8.2180908,11.5984024 8.2180908,12 C8.2180908,12.4015976 7.89241569,12.7272727 7.49081807,12.7272727 C7.08922046,12.7272727 6.76354534,12.4015976 6.76354534,12 C6.76354534,11.6344753 7.03424707,11.3290883 7.39456808,11.2794322 L7.44205982,11.2744217 L7.49081807,11.2727273 Z M7.49052716,3.85454545 L7.53659386,3.85633035 C7.77844731,3.87526871 7.98175563,4.04330141 8.05054194,4.28322605 L8.06183951,4.32903556 L8.07024161,4.38651093 L8.07263625,4.43636364 L8.07263625,10.1523292 C8.07263625,10.4378033 7.86619322,10.6779382 7.58478547,10.7260126 L7.53974886,10.7319858 L7.49081807,10.7341474 C7.22912784,10.7341474 7.00417966,10.5603867 6.9310942,10.3054668 L6.91979663,10.2596573 L6.91139453,10.2021819 L6.90899989,10.1523292 L6.90899989,4.43636364 C6.90899989,4.12964021 7.14634616,3.87835196 7.4473963,3.85614131 L7.49052716,3.85454545 Z" id="icon-color"></path>
            </g>
        </g>
    </g>
</svg>