<?xml version="1.0" encoding="UTF-8"?>
<svg width="30px" height="30px" viewBox="0 0 30 30" version="1.1" xmlns="http://www.w3.org/2000/svg" xmlns:xlink="http://www.w3.org/1999/xlink">
    <title>icon/controls/navigation/asset copy 3@svg</title>
    <g id="Page-1" stroke="none" stroke-width="1" fill="none" fill-rule="evenodd">
        <g id="assets" transform="translate(-361, -222)" fill="#FFFFFF">
            <g id="icon/controls/navigation/asset-copy-3" transform="translate(362.9, 226.4)">
                <path d="M22.6,-7.10542736e-15 L3.6,-7.10542736e-15 C1.6117749,-7.10542736e-15 2.13162821e-14,1.6117749 2.13162821e-14,3.6 L2.13162821e-14,17.6 C2.13162821e-14,19.5882251 1.6117749,21.2 3.6,21.2 L22.6,21.2 C24.5882251,21.2 26.2,19.5882251 26.2,17.6 L26.2,3.6 C26.2,1.6117749 24.5882251,-7.10542736e-15 22.6,-7.10542736e-15 Z M3.6,1.2 L22.6,1.2 C23.9254834,1.2 25,2.2745166 25,3.6 L25,17.6 C25,18.9254834 23.9254834,20 22.6,20 L3.6,20 C2.2745166,20 1.2,18.9254834 1.2,17.6 L1.2,3.6 C1.2,2.2745166 2.2745166,1.2 3.6,1.2 Z" id="Combined-Shape"></path>
                <path d="M4.1,9.3751361 L5.6,9.3751361 C6.15228475,9.3751361 6.6,9.82285135 6.6,10.3751361 L6.6,17.2337891 C6.6,17.7860738 6.15228475,18.2337891 5.6,18.2337891 L4.1,18.2337891 C3.54771525,18.2337891 3.1,17.7860738 3.1,17.2337891 L3.1,10.3751361 C3.1,9.82285135 3.54771525,9.3751361 4.1,9.3751361 Z M9.6,4.38811912 L11.1,4.38811912 C11.6522847,4.38811912 12.1,4.83583437 12.1,5.38811912 L12.1,17.2337891 C12.1,17.7860738 11.6522847,18.2337891 11.1,18.2337891 L9.6,18.2337891 C9.04771525,18.2337891 8.6,17.7860738 8.6,17.2337891 L8.6,5.38811912 C8.6,4.83583437 9.04771525,4.38811912 9.6,4.38811912 Z M15.1,12.6466939 L16.6,12.6466939 C17.1522847,12.6466939 17.6,13.0944092 17.6,13.6466939 L17.6,17.2337891 C17.6,17.7860738 17.1522847,18.2337891 16.6,18.2337891 L15.1,18.2337891 C14.5477153,18.2337891 14.1,17.7860738 14.1,17.2337891 L14.1,13.6466939 C14.1,13.0944092 14.5477153,12.6466939 15.1,12.6466939 Z M20.6,9.3751361 L22.1,9.3751361 C22.6522847,9.3751361 23.1,9.82285135 23.1,10.3751361 L23.1,17.2337891 C23.1,17.7860738 22.6522847,18.2337891 22.1,18.2337891 L20.6,18.2337891 C20.0477153,18.2337891 19.6,17.7860738 19.6,17.2337891 L19.6,10.3751361 C19.6,9.82285135 20.0477153,9.3751361 20.6,9.3751361 Z" id="Combined-Shape"></path>
                <path d="M5.6,8.8751361 C6.37969612,8.8751361 7.02044868,9.47002419 7.09313342,10.2306761 L7.1,10.3751361 L7.1,17.2337891 C7.1,18.0134852 6.50511192,18.6542377 5.74446001,18.7269225 L5.6,18.7337891 L4.1,18.7337891 C3.32030388,18.7337891 2.67955132,18.138901 2.60686658,17.3782491 L2.6,17.2337891 L2.6,10.3751361 C2.6,9.59543999 3.19488808,8.95468742 3.95553999,8.88200268 L4.1,8.8751361 L5.6,8.8751361 Z M11.1,3.88811912 C11.8796961,3.88811912 12.5204487,4.48300721 12.5931334,5.24365911 L12.6,5.38811912 L12.6,17.2337891 C12.6,18.0134852 12.0051119,18.6542377 11.24446,18.7269225 L11.1,18.7337891 L9.6,18.7337891 C8.82030388,18.7337891 8.17955132,18.138901 8.10686658,17.3782491 L8.1,17.2337891 L8.1,5.38811912 C8.1,4.60842301 8.69488808,3.96767044 9.45553999,3.8949857 L9.6,3.88811912 L11.1,3.88811912 Z M16.6,12.1466939 C17.3796961,12.1466939 18.0204487,12.741582 18.0931334,13.5022339 L18.1,13.6466939 L18.1,17.2337891 C18.1,18.0134852 17.5051119,18.6542377 16.74446,18.7269225 L16.6,18.7337891 L15.1,18.7337891 C14.3203039,18.7337891 13.6795513,18.138901 13.6068666,17.3782491 L13.6,17.2337891 L13.6,13.6466939 C13.6,12.8669978 14.1948881,12.2262453 14.95554,12.1535605 L15.1,12.1466939 L16.6,12.1466939 Z M22.1,8.8751361 C22.8796961,8.8751361 23.5204487,9.47002419 23.5931334,10.2306761 L23.6,10.3751361 L23.6,17.2337891 C23.6,18.0134852 23.0051119,18.6542377 22.24446,18.7269225 L22.1,18.7337891 L20.6,18.7337891 C19.8203039,18.7337891 19.1795513,18.138901 19.1068666,17.3782491 L19.1,17.2337891 L19.1,10.3751361 C19.1,9.59543999 19.6948881,8.95468742 20.45554,8.88200268 L20.6,8.8751361 L22.1,8.8751361 Z M5.6,9.8751361 L4.1,9.8751361 C3.85454011,9.8751361 3.65039163,10.0520113 3.60805567,10.2852605 L3.6,10.3751361 L3.6,17.2337891 C3.6,17.479249 3.77687516,17.6833974 4.01012437,17.7257334 L4.1,17.7337891 L5.6,17.7337891 C5.84545989,17.7337891 6.04960837,17.5569139 6.09194433,17.3236647 L6.1,17.2337891 L6.1,10.3751361 C6.1,10.1296762 5.92312484,9.92552773 5.68987563,9.88319177 L5.6,9.8751361 Z M11.1,4.88811912 L9.6,4.88811912 C9.35454011,4.88811912 9.15039163,5.06499428 9.10805567,5.29824349 L9.1,5.38811912 L9.1,17.2337891 C9.1,17.479249 9.27687516,17.6833974 9.51012437,17.7257334 L9.6,17.7337891 L11.1,17.7337891 C11.3454599,17.7337891 11.5496084,17.5569139 11.5919443,17.3236647 L11.6,17.2337891 L11.6,5.38811912 C11.6,5.14265923 11.4231248,4.93851075 11.1898756,4.89617479 L11.1,4.88811912 Z M16.6,13.1466939 L15.1,13.1466939 C14.8545401,13.1466939 14.6503916,13.3235691 14.6080557,13.5568183 L14.6,13.6466939 L14.6,17.2337891 C14.6,17.479249 14.7768752,17.6833974 15.0101244,17.7257334 L15.1,17.7337891 L16.6,17.7337891 C16.8454599,17.7337891 17.0496084,17.5569139 17.0919443,17.3236647 L17.1,17.2337891 L17.1,13.6466939 C17.1,13.401234 16.9231248,13.1970856 16.6898756,13.1547496 L16.6,13.1466939 Z M22.1,9.8751361 L20.6,9.8751361 C20.3545401,9.8751361 20.1503916,10.0520113 20.1080557,10.2852605 L20.1,10.3751361 L20.1,17.2337891 C20.1,17.479249 20.2768752,17.6833974 20.5101244,17.7257334 L20.6,17.7337891 L22.1,17.7337891 C22.3454599,17.7337891 22.5496084,17.5569139 22.5919443,17.3236647 L22.6,17.2337891 L22.6,10.3751361 C22.6,10.1296762 22.4231248,9.92552773 22.1898756,9.88319177 L22.1,9.8751361 Z" id="Combined-Shape" fill-rule="nonzero"></path>
            </g>
        </g>
    </g>
</svg>