<?xml version="1.0" encoding="UTF-8"?>
<svg width="30px" height="30px" viewBox="0 0 30 30" version="1.1" xmlns="http://www.w3.org/2000/svg" xmlns:xlink="http://www.w3.org/1999/xlink">
    <title>icon/controls/navigation/asset copy 5@svg</title>
    <g id="Page-1" stroke="none" stroke-width="1" fill="none" fill-rule="evenodd">
        <g id="assets" transform="translate(-361, -268)" fill="#FFFFFF">
            <g id="icon/controls/navigation/asset-copy-5" transform="translate(364, 272)">
                <path d="M21.5979945,7 C22.9245855,7 24,8.1105037 24,9.48037943 L24,20.5196206 C24,21.8894963 22.9245855,23 21.5979945,23 L2.40200549,23 C1.07541449,23 0,21.8894963 0,20.5196206 L0,9.48037943 C0,8.1105037 1.07541449,7 2.40200549,7 L21.5979945,7 Z" id="bottom"></path>
                <path d="M17.8838456,0 C18.5002807,0 19,0.488109467 19,1.09022301 L18.9996508,2.99993729 L19.875,3 C20.4963203,3 21,3.49271906 21,4.10051882 L21,8 L3,8 L3,4.10051882 C3,3.49271906 3.50367966,3 4.125,3 L4.99965075,2.99993729 L5,1.09022301 C5,0.488109467 5.49971935,0 6.11615441,0 L17.8838456,0 Z M19.875,4.10051882 L4.125,4.10051882 L4.12414172,6.89883148 L19.8741417,6.89883148 L19.875,4.10051882 Z M17.8838456,1.09022301 L6.11615441,1.09022301 L6.11538108,2.90947158 L17.882997,2.90947158 L17.8838456,1.09022301 Z" id="top"></path>
            </g>
        </g>
    </g>
</svg>